<svg width="25" height="26" viewBox="0 0 25 26" fill="none" xmlns="http://www.w3.org/2000/svg">
<path d="M14.8926 13.2876C14.8926 14.609 13.8214 15.6802 12.5 15.6802C11.1786 15.6802 10.1074 14.609 10.1074 13.2876C10.1074 11.9662 11.1786 10.895 12.5 10.895C13.8214 10.895 14.8926 11.9662 14.8926 13.2876Z" fill="white"/>
<path d="M18.0955 9.05451C17.9805 8.74285 17.797 8.46075 17.5586 8.2292C17.327 7.99078 17.0451 7.8073 16.7333 7.69228C16.4803 7.59406 16.1004 7.47713 15.4006 7.44528C14.6436 7.41076 14.4166 7.40332 12.5001 7.40332C10.5834 7.40332 10.3564 7.41057 9.59959 7.44509C8.89978 7.47713 8.51965 7.59406 8.26692 7.69228C7.95507 7.8073 7.67297 7.99078 7.44161 8.2292C7.20319 8.46075 7.01971 8.74266 6.9045 9.05451C6.80627 9.30743 6.68935 9.68756 6.6575 10.3874C6.62298 11.1442 6.61554 11.3712 6.61554 13.2879C6.61554 15.2044 6.62298 15.4314 6.6575 16.1884C6.68935 16.8882 6.80627 17.2681 6.9045 17.521C7.01971 17.8329 7.203 18.1148 7.44142 18.3464C7.67297 18.5848 7.95488 18.7683 8.26673 18.8833C8.51965 18.9817 8.89978 19.0986 9.59959 19.1305C10.3564 19.165 10.5832 19.1722 12.4999 19.1722C14.4168 19.1722 14.6438 19.165 15.4004 19.1305C16.1002 19.0986 16.4803 18.9817 16.7333 18.8833C17.3593 18.6418 17.854 18.147 18.0955 17.521C18.1937 17.2681 18.3106 16.8882 18.3427 16.1884C18.3772 15.4314 18.3845 15.2044 18.3845 13.2879C18.3845 11.3712 18.3772 11.1442 18.3427 10.3874C18.3108 9.68756 18.1939 9.30743 18.0955 9.05451ZM12.5001 16.9734C10.4644 16.9734 8.81414 15.3234 8.81414 13.2877C8.81414 11.252 10.4644 9.60192 12.5001 9.60192C14.5356 9.60192 16.1859 11.252 16.1859 13.2877C16.1859 15.3234 14.5356 16.9734 12.5001 16.9734ZM16.3316 10.3176C15.8559 10.3176 15.4702 9.93189 15.4702 9.4562C15.4702 8.98051 15.8559 8.59484 16.3316 8.59484C16.8073 8.59484 17.1929 8.98051 17.1929 9.4562C17.1927 9.93189 16.8073 10.3176 16.3316 10.3176Z" fill="white"/>
<path d="M12.5 0.787598C5.5975 0.787598 0 6.38509 0 13.2876C0 20.1901 5.5975 25.7876 12.5 25.7876C19.4025 25.7876 25 20.1901 25 13.2876C25 6.38509 19.4025 0.787598 12.5 0.787598ZM19.6344 16.2468C19.5997 17.0109 19.4782 17.5326 19.3008 17.9892C18.928 18.9534 18.1658 19.7156 17.2016 20.0884C16.7452 20.2658 16.2233 20.3871 15.4594 20.422C14.694 20.4569 14.4495 20.4653 12.5002 20.4653C10.5507 20.4653 10.3064 20.4569 9.54075 20.422C8.77686 20.3871 8.255 20.2658 7.79858 20.0884C7.31945 19.9082 6.88572 19.6257 6.52714 19.2605C6.16207 18.9021 5.87959 18.4681 5.69935 17.9892C5.52197 17.5328 5.40047 17.0109 5.36575 16.247C5.33047 15.4814 5.32227 15.2369 5.32227 13.2876C5.32227 11.3383 5.33047 11.0938 5.36556 10.3283C5.40028 9.56426 5.52158 9.0426 5.69897 8.58598C5.87921 8.10705 6.16188 7.67313 6.52714 7.31474C6.88553 6.94948 7.31945 6.667 7.79839 6.48676C8.255 6.30937 8.77666 6.18806 9.54075 6.15316C10.3062 6.11826 10.5507 6.10986 12.5 6.10986C14.4493 6.10986 14.6938 6.11826 15.4593 6.15335C16.2233 6.18806 16.745 6.30937 17.2016 6.48656C17.6805 6.66681 18.1145 6.94948 18.4731 7.31474C18.8381 7.67332 19.1208 8.10705 19.3008 8.58598C19.4784 9.0426 19.5997 9.56426 19.6346 10.3283C19.6695 11.0938 19.6777 11.3383 19.6777 13.2876C19.6777 15.2369 19.6695 15.4814 19.6344 16.2468Z" fill="white"/>
</svg>
