<svg width="25" height="25" viewBox="0 0 25 25" fill="none" xmlns="http://www.w3.org/2000/svg">
<mask id="path-1-inside-1_121_3340" fill="white">
<path d="M12.5 25C19.4052 25 25 19.4052 25 12.5C25 5.59479 19.4052 0 12.5 0C5.59479 0 0 5.59479 0 12.5C0 19.4052 5.59479 25 12.5 25ZM5.71979 12.2292L17.7719 7.58229C18.3312 7.38021 18.8198 7.71875 18.6385 8.56458L18.6396 8.56354L16.5875 18.2313C16.4354 18.9167 16.0281 19.0833 15.4583 18.7604L12.3333 16.4573L10.826 17.9094C10.6594 18.076 10.5187 18.2167 10.1958 18.2167L10.4177 15.0365L16.2094 9.80417C16.4615 9.58229 16.1531 9.45729 15.8208 9.67813L8.66354 14.1844L5.57812 13.2219C4.90833 13.0094 4.89375 12.5521 5.71979 12.2292Z"/>
</mask>
<path d="M12.5 25C19.4052 25 25 19.4052 25 12.5C25 5.59479 19.4052 0 12.5 0C5.59479 0 0 5.59479 0 12.5C0 19.4052 5.59479 25 12.5 25ZM5.71979 12.2292L17.7719 7.58229C18.3312 7.38021 18.8198 7.71875 18.6385 8.56458L18.6396 8.56354L16.5875 18.2313C16.4354 18.9167 16.0281 19.0833 15.4583 18.7604L12.3333 16.4573L10.826 17.9094C10.6594 18.076 10.5187 18.2167 10.1958 18.2167L10.4177 15.0365L16.2094 9.80417C16.4615 9.58229 16.1531 9.45729 15.8208 9.67813L8.66354 14.1844L5.57812 13.2219C4.90833 13.0094 4.89375 12.5521 5.71979 12.2292Z" fill="white"/>
<path d="M17.7719 7.58229L10.6366 -12.1684L10.426 -12.0923L10.2171 -12.0117L17.7719 7.58229ZM18.6385 8.56458L-1.89531 4.16447L-16.8082 73.7578L33.4949 23.4067L18.6385 8.56458ZM18.6396 8.56354L39.1819 12.9239L53.9075 -56.4506L3.78326 -6.27862L18.6396 8.56354ZM16.5875 18.2313L37.0889 22.7802L37.1098 22.686L37.1298 22.5916L16.5875 18.2313ZM15.4583 18.7604L2.99942 35.6653L4.01098 36.4108L5.10423 37.0304L15.4583 18.7604ZM12.3333 16.4573L24.7922 -0.447606L10.5263 -10.9616L-2.23636 1.33366L12.3333 16.4573ZM10.826 17.9094L-3.74365 2.78575L-3.88471 2.92164L-4.0232 3.06013L10.826 17.9094ZM10.1958 18.2167L-10.7532 16.7551L-12.3203 39.2167H10.1958V18.2167ZM10.4177 15.0365L-3.65995 -0.546211L-9.94214 5.12923L-10.5314 13.5749L10.4177 15.0365ZM16.2094 9.80417L2.33472 -5.95953L2.23263 -5.86967L2.13172 -5.7785L16.2094 9.80417ZM15.8208 9.67813L27.0096 27.4492L27.2286 27.3113L27.4442 27.168L15.8208 9.67813ZM8.66354 14.1844L2.40979 34.2316L11.6559 37.1159L19.8523 31.9555L8.66354 14.1844ZM5.57812 13.2219L-0.772446 33.2386L-0.724073 33.254L-0.675628 33.2691L5.57812 13.2219ZM12.5 46C31.0032 46 46 31.0032 46 12.5H4C4 7.80723 7.80723 4 12.5 4V46ZM46 12.5C46 -6.00319 31.0032 -21 12.5 -21V21C7.80723 21 4 17.1928 4 12.5H46ZM12.5 -21C-6.00319 -21 -21 -6.00319 -21 12.5H21C21 17.1928 17.1928 21 12.5 21V-21ZM-21 12.5C-21 31.0032 -6.00319 46 12.5 46V4C17.1928 4 21 7.80723 21 12.5H-21ZM13.2746 31.8232L25.3267 27.1763L10.2171 -12.0117L-1.83499 -7.36484L13.2746 31.8232ZM24.9071 27.3329C20.1854 29.0388 11.1429 29.8509 3.82564 22.7192C-3.23837 15.8344 -2.59443 7.42705 -1.89531 4.16447L39.1724 12.9647C40.0528 8.85628 40.5431 -0.143212 33.1402 -7.35826C25.4841 -14.8202 15.9178 -14.0763 10.6366 -12.1684L24.9071 27.3329ZM33.4949 23.4067L33.4959 23.4057L3.78326 -6.27862L3.78222 -6.27758L33.4949 23.4067ZM-1.90275 4.20319L-3.95483 13.8709L37.1298 22.5916L39.1819 12.9239L-1.90275 4.20319ZM-3.91389 13.6823C-3.40556 11.3913 -1.15395 3.67078 7.51609 -0.255716C16.2729 -4.22151 23.637 -0.742451 25.8124 0.490428L5.10423 37.0304C7.84945 38.5862 15.7021 42.1434 24.843 38.0036C33.8972 33.9032 36.4285 25.7566 37.0889 22.7802L-3.91389 13.6823ZM27.9172 1.85552L24.7922 -0.447606L-0.125578 33.3622L2.99942 35.6653L27.9172 1.85552ZM-2.23636 1.33366L-3.74365 2.78575L25.3957 33.033L26.903 31.5809L-2.23636 1.33366ZM-4.0232 3.06013C-4.44766 3.48459 -2.64633 1.51703 0.0187535 -0.0316015C3.39033 -1.99077 6.96824 -2.78333 10.1958 -2.78333V39.2167C13.7463 39.2167 17.556 38.3538 21.1203 36.2826C22.6853 35.3733 23.8427 34.4371 24.5661 33.8012C24.9243 33.4865 25.2064 33.2179 25.379 33.0507C25.4673 32.965 25.5399 32.8933 25.5869 32.8467C25.6308 32.8031 25.6699 32.764 25.6753 32.7586L-4.0232 3.06013ZM31.1449 19.6782L31.3668 16.498L-10.5314 13.5749L-10.7532 16.7551L31.1449 19.6782ZM24.4954 30.6191L30.287 25.3868L2.13172 -5.7785L-3.65995 -0.546211L24.4954 30.6191ZM30.084 25.5679C31.5345 24.2912 36.9871 19.2115 37.2895 10.3781C37.6994 -1.59897 28.9765 -8.1557 23.3515 -10.182C18.3377 -11.9882 13.95 -11.4684 11.5189 -10.9303C8.70118 -10.3066 6.24147 -9.1702 4.19745 -7.81178L27.4442 27.168C25.5663 28.416 23.2698 29.4853 20.5955 30.0772C18.3078 30.5836 14.0437 31.107 9.11699 29.3323C3.57915 27.3373 -5.0932 20.8397 -4.68597 8.94148C-4.38634 0.187026 1.01026 -4.79378 2.33472 -5.95953L30.084 25.5679ZM4.6321 -8.09298L-2.52519 -3.58673L19.8523 31.9555L27.0096 27.4492L4.6321 -8.09298ZM14.9173 -5.86283L11.8319 -6.82533L-0.675628 33.2691L2.40979 34.2316L14.9173 -5.86283ZM11.9287 -6.79488C13.5048 -6.29483 16.5867 -5.10068 19.5953 -2.26861C22.9031 0.845025 26.6999 6.70345 26.0078 14.6004C25.3747 21.8237 21.3329 26.3199 19.1104 28.2712C16.7745 30.3222 14.5363 31.3302 13.3657 31.7878L-1.92608 -7.32948C-3.50971 -6.71041 -6.05587 -5.52411 -8.60044 -3.28998C-11.0316 -1.15545 -15.1828 3.52887 -15.8318 10.9334C-16.5398 19.0117 -12.6653 25.0444 -9.19226 28.3137C-6.01833 31.3013 -2.68346 32.6323 -0.772446 33.2386L11.9287 -6.79488Z" fill="white" mask="url(#path-1-inside-1_121_3340)"/>
</svg>
